<?xml version="1.0" encoding="UTF-8" standalone="no"?>
<svg width="140px" height="140px" viewBox="0 0 140 140" version="1.1" xmlns="http://www.w3.org/2000/svg" xmlns:xlink="http://www.w3.org/1999/xlink">
    <!-- Generator: sketchtool 3.6.1 (26313) - http://www.bohemiancoding.com/sketch -->
    <title>trips-empty</title>
    <desc>Created with sketchtool.</desc>
    <defs></defs>
    <g id="Page-1" stroke="none" stroke-width="1" fill="none" fill-rule="evenodd">
        <g id="5.0.0.-My-Trips" transform="translate(-90.000000, -110.000000)">
            <g id="trips-empty" transform="translate(90.000000, 110.000000)">
                <g id="Layer_1">
                    <g id="Group">
                        <circle id="Oval" fill="#EEEEEE" cx="69.9525984" cy="69.9525984" r="69.8159055"></circle>
                        <g transform="translate(36.377953, 9.921260)" id="Shape">
                            <g>
                                <g transform="translate(12.125984, 108.031496)" fill="#626463">
                                    <path d="M6.02110236,9.43401575 C6.02110236,10.816378 4.89889764,11.9374803 3.5176378,11.9374803 L3.5176378,11.9374803 C2.13527559,11.9374803 1.01417323,10.8152756 1.01417323,9.43401575 L1.01417323,3.24976378 C1.01417323,1.86629921 2.13527559,0.746299213 3.5176378,0.746299213 L3.5176378,0.746299213 C4.9,0.746299213 6.02110236,1.86629921 6.02110236,3.24976378 L6.02110236,9.43401575 L6.02110236,9.43401575 Z"></path>
                                    <path d="M37.2411024,9.43401575 C37.2411024,10.816378 36.12,11.9374803 34.7376378,11.9374803 L34.7376378,11.9374803 C33.3552756,11.9374803 32.2341732,10.8152756 32.2341732,9.43401575 L32.2341732,3.24976378 C32.2341732,1.86629921 33.3552756,0.746299213 34.7376378,0.746299213 L34.7376378,0.746299213 C36.1211024,0.746299213 37.2411024,1.86629921 37.2411024,3.24976378 L37.2411024,9.43401575 L37.2411024,9.43401575 Z"></path>
                                </g>
                                <path d="M61.7785827,61.6462992 L61.7785827,63.8598425 C63.2370079,64.4826772 64.26,65.9300787 64.26,67.6166929 L64.26,73.3820472 C64.26,75.0686614 63.2370079,76.5171654 61.7785827,77.14 L61.7785827,79.3524409 C64.643622,79.3524409 66.9685039,77.0286614 66.9685039,74.1647244 L66.9685039,66.8373228 C66.9685039,63.9689764 64.643622,61.6462992 61.7785827,61.6462992 L61.7785827,61.6462992 Z" fill="#626463"></path>
                                <g transform="translate(18.740157, 0.000000)">
                                    <g transform="translate(1.102362, 0.000000)">
                                        <path d="M15.7240945,3.07007874 L6.63291339,3.07007874 C4.65748031,3.07007874 3.05685039,4.67070866 3.05685039,6.64614173 L3.05685039,27.8181102 L19.3012598,27.8181102 L19.3012598,6.64614173 C19.3012598,4.67070866 17.6995276,3.07007874 15.7240945,3.07007874 L15.7240945,3.07007874 Z"></path>
                                        <path d="M3.05574803,6.64614173 C3.05574803,4.67070866 4.65637795,3.07007874 6.63181102,3.07007874 L15.7229921,3.07007874 C17.6984252,3.07007874 19.3001575,4.67070866 19.3001575,6.64614173 L19.3001575,27.8181102 L21.6437795,27.8181102 L21.6437795,4.7015748 C21.6437795,2.15622047 19.5801575,0.0937007874 17.0337008,0.0937007874 L5.32,0.0937007874 C2.77574803,0.0937007874 0.712125984,2.15622047 0.712125984,4.7015748 L0.712125984,27.8192126 L3.05574803,27.8192126 L3.05574803,6.64614173 L3.05574803,6.64614173 Z" fill="#626463"></path>
                                    </g>
                                    <path d="M23.8628346,2.41968504 C23.8628346,3.70393701 23.0393701,4.74456693 22.0229921,4.74456693 L2.44503937,4.74456693 C1.42866142,4.74456693 0.60519685,3.70393701 0.60519685,2.41968504 L0.60519685,2.41968504 C0.60519685,1.13433071 1.42866142,0.0937007874 2.44503937,0.0937007874 L22.0240945,0.0937007874 C23.0393701,0.0937007874 23.8628346,1.13433071 23.8628346,2.41968504 L23.8628346,2.41968504 L23.8628346,2.41968504 Z" fill="#626463"></path>
                                </g>
                                <path d="M62.3264567,109.686142 C62.3264567,113.385669 59.3269291,116.385197 55.6285039,116.385197 L6.87874016,116.385197 C3.1792126,116.385197 0.179685039,113.385669 0.179685039,109.686142 L0.179685039,34.4234646 C0.179685039,30.723937 3.1792126,27.7255118 6.87874016,27.7255118 L55.6285039,27.7255118 C59.3269291,27.7255118 62.3264567,30.723937 62.3264567,34.4234646 L62.3264567,109.686142 L62.3264567,109.686142 Z" fill="#67B8CB"></path>
                                <g transform="translate(5.511811, 66.141732)">
                                    <path d="M50.7450394,37.7790551 C50.7450394,40.7554331 48.3319685,43.1685039 45.3533858,43.1685039 L6.12913386,43.1685039 C3.15275591,43.1685039 0.737480315,40.7565354 0.737480315,37.7790551 L0.737480315,5.39826772 C0.737480315,2.42188976 3.15165354,0.00771653543 6.12913386,0.00771653543 L45.3544882,0.00771653543 C48.3319685,0.00771653543 50.7461417,2.4207874 50.7461417,5.39826772 L50.7461417,37.7790551 L50.7450394,37.7790551 Z" fill="#40ABB6"></path>
                                    <path d="M50.7450394,41.0365354 C50.7450394,44.0129134 48.3319685,46.4270866 45.3533858,46.4270866 L6.12913386,46.4270866 C3.15275591,46.4270866 0.737480315,44.0140157 0.737480315,41.0365354 L1.55212598,8.65574803 C1.55212598,5.67937008 3.96629921,3.26519685 6.94267717,3.26519685 L44.3546457,3.26519685 C47.3310236,3.26519685 49.7440945,5.67826772 49.7440945,8.65574803 L50.7450394,41.0365354 L50.7450394,41.0365354 Z" fill="#58B4C3"></path>
                                    <g transform="translate(7.716535, 8.818898)">
                                        <path d="M34.3992126,0.187401575 L1.46503937,0.187401575 C1.05385827,0.187401575 0.71984252,0.916062992 0.71984252,1.81669291 C0.71984252,2.71401575 1.05385827,3.44488189 1.46503937,3.44488189 L34.3992126,3.44488189 C34.8103937,3.44488189 35.1444094,2.71511811 35.1444094,1.81669291 C35.1444094,0.916062992 34.8103937,0.187401575 34.3992126,0.187401575 L34.3992126,0.187401575 Z" fill="#40ABB6"></path>
                                        <path d="M34.3992126,1.44409449 L1.46503937,1.44409449 C1.05385827,1.44409449 0.71984252,1.61055118 0.71984252,1.81669291 C0.71984252,2.02283465 1.05385827,2.18929134 1.46503937,2.18929134 L34.3992126,2.18929134 C34.8103937,2.18929134 35.1444094,2.02283465 35.1444094,1.81669291 C35.1444094,1.61055118 34.8103937,1.44409449 34.3992126,1.44409449 L34.3992126,1.44409449 Z" fill="#28868C"></path>
                                        <path d="M34.9206299,2.79559055 L34.9206299,2.77133858 C34.9206299,2.2488189 34.6461417,1.8288189 34.3055118,1.8288189 C33.9648819,1.8288189 33.6903937,2.24992126 33.6903937,2.77133858 C33.6903937,2.77905512 33.6914961,2.78787402 33.6914961,2.79559055 C33.5823622,2.9311811 33.5140157,3.10094488 33.5140157,3.28944882 C33.5140157,3.72598425 33.8689764,4.07984252 34.3055118,4.07984252 C34.7431496,4.07984252 35.0970079,3.72598425 35.0970079,3.28944882 C35.0970079,3.10094488 35.0275591,2.9311811 34.9206299,2.79559055 L34.9206299,2.79559055 Z" fill="#258B90"></path>
                                    </g>
                                </g>
                                <g transform="translate(5.511811, 33.070866)">
                                    <g>
                                        <path d="M50.7450394,21.5401575 C50.7450394,24.5165354 48.3319685,26.9296063 45.3533858,26.9296063 L6.12913386,26.9296063 C3.15275591,26.9296063 0.737480315,24.5176378 0.737480315,21.5401575 L0.737480315,6.46204724 C0.737480315,3.48677165 3.15165354,1.07149606 6.12913386,1.07149606 L45.3544882,1.07149606 C48.3319685,1.07149606 50.7461417,3.48566929 50.7461417,6.46204724 L50.7461417,21.5401575 L50.7450394,21.5401575 Z" fill="#40ABB6"></path>
                                        <path d="M50.7450394,21.5401575 C50.7450394,24.5165354 48.3319685,26.9296063 45.3533858,26.9296063 L6.12913386,26.9296063 C3.15275591,26.9296063 0.737480315,24.5176378 0.737480315,21.5401575 L1.55212598,9.16393701 C1.55212598,6.18755906 3.96629921,3.77338583 6.94267717,3.77338583 L44.3546457,3.77338583 C47.3310236,3.77338583 49.7440945,6.18645669 49.7440945,9.16393701 L50.7450394,21.5401575 L50.7450394,21.5401575 Z" fill="#58B4C3"></path>
                                    </g>
                                    <g transform="translate(7.716535, 5.511811)">
                                        <path d="M34.3992126,0.982204724 L1.46503937,0.982204724 C1.05385827,0.982204724 0.71984252,1.70976378 0.71984252,2.60929134 C0.71984252,3.5088189 1.05385827,4.23968504 1.46503937,4.23968504 L34.3992126,4.23968504 C34.8103937,4.23968504 35.1444094,3.5088189 35.1444094,2.60929134 C35.1444094,1.70976378 34.8103937,0.982204724 34.3992126,0.982204724 L34.3992126,0.982204724 Z" fill="#40ABB6"></path>
                                        <path d="M34.3992126,2.23669291 L1.46503937,2.23669291 C1.05385827,2.23669291 0.71984252,2.40204724 0.71984252,2.60818898 C0.71984252,2.81433071 1.05385827,2.9807874 1.46503937,2.9807874 L34.3992126,2.9807874 C34.8103937,2.9807874 35.1444094,2.81433071 35.1444094,2.60818898 C35.1444094,2.40204724 34.8103937,2.23669291 34.3992126,2.23669291 L34.3992126,2.23669291 Z" fill="#28868C"></path>
                                        <path d="M34.9206299,3.58929134 L34.9206299,3.56283465 C34.9206299,3.04141732 34.6461417,2.62141732 34.3055118,2.62141732 C33.9648819,2.62141732 33.6903937,3.04251969 33.6903937,3.56283465 C33.6903937,3.57275591 33.6914961,3.5815748 33.6914961,3.58929134 C33.5823622,3.72488189 33.5140157,3.89354331 33.5140157,4.08204724 C33.5140157,4.51858268 33.8689764,4.87244094 34.3055118,4.87244094 C34.7431496,4.87244094 35.0970079,4.51968504 35.0970079,4.08204724 C35.0970079,3.89354331 35.0275591,3.72488189 34.9206299,3.58929134 L34.9206299,3.58929134 Z" fill="#258B90"></path>
                                    </g>
                                </g>
                            </g>
                            <g transform="translate(1.102362, 26.456693)">
                                <path d="M6.03874016,9.77685039 L5.83149606,9.29732283 C7.40897638,8.60614173 8.25779528,7.56 8.25779528,6.89968504 C8.25779528,6.18425197 7.24582677,5.58346457 6.85669291,5.4103937 L7.06614173,4.9319685 C7.13559055,4.96173228 8.78031496,5.69370079 8.78141732,6.89637795 C8.78141732,7.81023622 7.87307087,8.97212598 6.03874016,9.77685039 L6.03874016,9.77685039 Z" fill="#258B90"></path>
                                <path d="M4.37307087,4.59574803 C4.37307087,4.59574803 0.181889764,11.3322835 0.779370079,13.0034646 L5.18661417,25.3466142 C5.78188976,27.0155906 7.03858268,27.5259843 8.70755906,26.9296063 L15.2566929,24.5914961 C16.9267717,23.9951181 17.4724409,22.8409449 16.876063,21.1719685 L12.4688189,8.82771654 C11.8735433,7.15874016 4.37307087,4.59574803 4.37307087,4.59574803 L4.37307087,4.59574803 Z M6.66488189,10.3324409 C6.01448819,10.5650394 5.30015748,10.2266142 5.06866142,9.57732283 C4.83716535,8.9280315 5.17559055,8.21480315 5.82488189,7.98110236 C6.47417323,7.7496063 7.18850394,8.08913386 7.42,8.73732283 C7.65149606,9.38661417 7.31307087,10.1009449 6.66488189,10.3324409 L6.66488189,10.3324409 Z" fill="#31A3A8"></path>
                                <path d="M4.21322835,4.8592126 C4.21322835,4.8592126 0.171968504,11.3973228 0.754015748,13.0266142 L5.05433071,25.0743307 C5.63748031,26.7047244 6.76299213,27.2382677 8.39228346,26.6562205 L14.7848819,24.3732283 C16.4152756,23.7922835 16.9477165,22.6667717 16.3656693,21.036378 L12.0631496,8.98866142 C11.4822047,7.35937008 4.21322835,4.8592126 4.21322835,4.8592126 L4.21322835,4.8592126 Z M6.39811024,10.4559055 C5.76425197,10.6818898 5.06645669,10.3522835 4.84047244,9.7184252 C4.61448819,9.08456693 4.94519685,8.38677165 5.57795276,8.1607874 C6.21291339,7.93480315 6.90850394,8.26661417 7.13559055,8.89937008 C7.36047244,9.53212598 7.03086614,10.2299213 6.39811024,10.4559055 L6.39811024,10.4559055 Z" fill="#4EA5AE"></path>
                                <path d="M6.03874016,9.77685039 C6.01338583,9.78566929 5.98251969,9.79228346 5.95275591,9.7911811 C5.80724409,9.7911811 5.69149606,9.67543307 5.69149606,9.52992126 C5.69149606,9.33370079 5.73559055,4.69165354 9.13858268,2.01511811 C11.5031496,0.154330709 14.8774803,-0.264566929 19.1700787,0.767244094 C19.3100787,0.799212598 19.3971654,0.941417323 19.3629921,1.08251969 C19.3299213,1.22251969 19.1888189,1.30740157 19.0488189,1.27433071 C14.9182677,0.281102362 11.6927559,0.668031496 9.4615748,2.42519685 C6.25700787,4.94740157 6.21511811,9.48472441 6.21511811,9.52992126 C6.21291339,9.64346457 6.14015748,9.73937008 6.03874016,9.77685039 L6.03874016,9.77685039 Z" fill="#258B90"></path>
                                <path d="M3.60141732,14.7903937 C3.29606299,13.9327559 3.69070866,13.0056693 4.48771654,12.7223622 L9.23007874,11.0280315 C10.0259843,10.7447244 10.9188976,11.2110236 11.2253543,12.0675591 L14.3229921,20.7431496 C14.6305512,21.6018898 14.2337008,22.527874 13.4388976,22.8122835 L8.69653543,24.5055118 C7.90062992,24.7899213 7.00771654,24.3247244 6.69905512,23.4670866 L3.60141732,14.7903937 L3.60141732,14.7903937 Z" fill="#FFFFFF"></path>
                                <path d="M4.74015748,13.6814173 C4.4888189,13.771811 4.35653543,14.0496063 4.44692913,14.3020472 L7.63275591,23.2256693 C7.72314961,23.4781102 8.00094488,23.6092913 8.25338583,23.5188976 C8.50582677,23.4285039 8.63811024,23.151811 8.54771654,22.8993701 L5.3607874,13.975748 C5.26929134,13.7233071 4.99149606,13.592126 4.74015748,13.6814173 L4.74015748,13.6814173 Z" fill="#94D6E2"></path>
                                <path d="M6.70677165,12.9792126 C6.45433071,13.0696063 6.32425197,13.3462992 6.41354331,13.5998425 L9.59937008,22.5212598 C9.69086614,22.7737008 9.96755906,22.9059843 10.22,22.8155906 C10.4713386,22.7251969 10.603622,22.4496063 10.5132283,22.196063 L7.32629921,13.2724409 C7.23700787,13.0211024 6.9592126,12.8888189 6.70677165,12.9792126 L6.70677165,12.9792126 Z" fill="#94D6E2"></path>
                                <path d="M8.67448819,12.2770079 C8.42204724,12.3674016 8.29086614,12.6451969 8.38125984,12.8976378 L11.5670866,21.8201575 C11.6574803,22.0725984 11.9341732,22.2037795 12.1877165,22.1133858 C12.4390551,22.0240945 12.5713386,21.7462992 12.4809449,21.4938583 L9.29511811,12.5713386 C9.20472441,12.3188976 8.92692913,12.1877165 8.67448819,12.2770079 L8.67448819,12.2770079 Z" fill="#94D6E2"></path>
                            </g>
                        </g>
                    </g>
                </g>
            </g>
        </g>
    </g>
</svg>