<?xml version="1.0" encoding="UTF-8" standalone="no"?>
<svg width="140px" height="140px" viewBox="0 0 140 140" version="1.1" xmlns="http://www.w3.org/2000/svg" xmlns:xlink="http://www.w3.org/1999/xlink">
    <!-- Generator: sketchtool 3.6.1 (26313) - http://www.bohemiancoding.com/sketch -->
    <title>wishlist-empty</title>
    <desc>Created with sketchtool.</desc>
    <defs></defs>
    <g id="Page-1" stroke="none" stroke-width="1" fill="none" fill-rule="evenodd">
        <g id="4.0.0.-Wishlist" transform="translate(-90.000000, -110.000000)">
            <g id="wishlist-empty" transform="translate(90.000000, 110.000000)">
                <path d="M69.7629703,0 C31.2352475,0 0,31.2338614 0,69.7615842 C0,108.290693 31.2352475,139.524554 69.7629703,139.524554 C108.292079,139.524554 139.525941,108.290693 139.525941,69.7615842 C139.525941,31.2338614 108.292079,0 69.7629703,0" id="Fill-716" fill="#EEEEEE"></path>
                <g id="Group-2" transform="translate(19.000000, 40.000000)">
                    <path d="M10.5837139,21.7408769 L89.6258638,0.561810467 C91.4029501,0.0848656294 93.2428369,1.14738331 93.7197818,2.92107496 L100.634633,28.7321075 C101.111578,30.5057992 100.047363,32.3473833 98.2736714,32.8226308 L19.2281269,54.0033946 C17.4527379,54.4769448 15.6128511,53.4144272 15.1376036,51.6390382 L8.22105476,25.8314003 C7.74580723,24.0560113 8.80832491,22.2144272 10.5837139,21.7408769" id="Fill-718" fill="#FFFFFF"></path>
                    <path d="M69.3888058,5.98472419 L89.6292584,0.561810467 C91.4029501,0.0848656294 93.2428369,1.14738331 93.7197818,2.92107496 L100.634633,28.7321075 C101.111578,30.5057992 100.047363,32.3473833 98.2736714,32.8226308 L78.0315215,38.2472419 L69.3888058,5.98472419" id="Fill-719" fill="#FBD15F"></path>
                    <path d="M71.6632047,19.0981612 L72.3811679,21.7782178 L71.8634876,21.9173975 L71.143827,19.2390382 L71.6632047,19.0981612" id="Fill-720" fill="#C7C7C2"></path>
                    <path d="M70.5718327,15.0263083 L71.2897959,17.7063649 L70.7721156,17.8455446 L70.052455,15.165488 L70.5718327,15.0263083" id="Fill-721" fill="#C7C7C2"></path>
                    <path d="M69.4804607,10.9544554 L70.1984239,13.6328147 L69.6790463,13.7719943 L68.9627804,11.0936351 L69.4804607,10.9544554" id="Fill-722" fill="#C7C7C2"></path>
                    <path d="M74.9373207,31.3171146 L75.6552839,33.9971711 L75.1359062,34.1363508 L74.4196403,31.4562942 L74.9373207,31.3171146" id="Fill-723" fill="#C7C7C2"></path>
                    <path d="M73.8459487,27.2435644 L74.5639119,29.9219236 L74.0445342,30.0628006 L73.3282683,27.382744 L73.8459487,27.2435644" id="Fill-724" fill="#C7C7C2"></path>
                    <path d="M72.7545767,23.1717115 L73.4725399,25.851768 L72.9531623,25.9909477 L72.235199,23.3108911 L72.7545767,23.1717115" id="Fill-725" fill="#C7C7C2"></path>
                    <path d="M76.0286927,35.3889675 L76.7466559,38.069024 L76.2272782,38.2065064 L75.509315,35.5281471 L76.0286927,35.3889675" id="Fill-726" fill="#C7C7C2"></path>
                    <path d="M8.2125682,25.7991513 C8.2125682,25.7957567 8.21087088,25.7923621 8.21087088,25.7906648 L8.21087088,25.7940594 C8.2125682,25.7957567 8.2125682,25.797454 8.2125682,25.7991513 M8.20917357,25.7838755 L8.20917357,25.7804809 L8.20917357,25.7821782 L8.20917357,25.7838755 M8.20577895,25.7685997 C8.20408163,25.7618105 8.20238432,25.7567185 8.20068701,25.7499293 C8.20238432,25.7550212 8.20238432,25.7584158 8.20408163,25.7635078 C8.20408163,25.7652051 8.20408163,25.7669024 8.20577895,25.7685997 M8.19729238,25.7380481 C8.19559507,25.7295615 8.19389776,25.7193777 8.19050313,25.7091938 C8.19389776,25.7193777 8.19559507,25.7295615 8.19729238,25.7380481 M8.18880582,25.6956153 C8.18541119,25.6871287 8.18371388,25.6769448 8.18201657,25.6684583 C8.18371388,25.6769448 8.18541119,25.6871287 8.18880582,25.6956153 M8.17862194,25.6531825 C8.17692463,25.6446959 8.17522732,25.6379066 8.17353001,25.6294201 C8.17522732,25.6379066 8.17692463,25.6446959 8.17862194,25.6531825 M8.17013538,25.6107496 C8.16843807,25.6039604 8.16674076,25.5954738 8.16674076,25.5886846 C8.16674076,25.5954738 8.16843807,25.6039604 8.17013538,25.6107496 M8.16334613,25.5700141 C8.16164882,25.5632249 8.15995151,25.5564356 8.15825419,25.5496464 C8.15995151,25.5564356 8.16164882,25.5632249 8.16334613,25.5700141 M8.15485957,25.5275813 C8.15485957,25.5207921 8.15316226,25.5157001 8.15146494,25.5106082 C8.15316226,25.5157001 8.15485957,25.5207921 8.15485957,25.5275813 M8.14807032,25.4851485 C8.14807032,25.4800566 8.146373,25.476662 8.146373,25.47157 C8.146373,25.476662 8.14807032,25.4800566 8.14807032,25.4851485 M8.14128107,25.4427157 L8.14128107,25.4342291 L8.14128107,25.4427157 M8.13618913,25.4019802 L8.13618913,25.3985856 L8.13618913,25.4019802 M8.35853708,23.7046676 C8.36023439,23.7029703 8.36023439,23.7029703 8.36023439,23.701273 C8.36023439,23.7029703 8.36023439,23.7029703 8.35853708,23.7046676 M8.36872095,23.6809052 C8.37211558,23.674116 8.3755102,23.6673267 8.37720752,23.6605375 C8.3755102,23.6673267 8.37211558,23.674116 8.36872095,23.6809052 M8.38060214,23.6537482 C8.41285108,23.5773692 8.44849465,23.5009901 8.48753283,23.4280057 L8.48583552,23.4330976 C8.44849465,23.5043847 8.41285108,23.5790665 8.38060214,23.6537482" id="Fill-727" fill="#D75B37"></path>
                    <path d="M18.3692867,54.1154173 L18.3353405,54.1154173 L18.3692867,54.1154173 M18.376076,54.1154173 C18.6408567,54.1154173 18.9073348,54.0831683 19.1738129,54.0169731 C18.9073348,54.0831683 18.6408567,54.1154173 18.376076,54.1154173 M15.1698525,51.7510608 C15.1630632,51.7323904 15.1579713,51.7137199 15.1528794,51.6933522 C15.1579713,51.7137199 15.1630632,51.7323904 15.1698525,51.7510608 M85.0855526,36.3564356 L91.1347747,34.7355021 L85.0855526,36.3564356 M8.22105476,25.8314003 L8.22105476,25.8314003 C8.21935745,25.8212164 8.21596282,25.8093352 8.2125682,25.7991513 C8.2125682,25.797454 8.2125682,25.7957567 8.21087088,25.7940594 C8.21426551,25.8059406 8.21766013,25.8195191 8.22105476,25.8314003 M8.20917357,25.7821782 C8.20917357,25.7821782 8.20917357,25.7821782 8.20917357,25.7804809 C8.20747626,25.7770863 8.20577895,25.7719943 8.20577895,25.7685997 C8.20408163,25.7669024 8.20408163,25.7652051 8.20408163,25.7635078 C8.20577895,25.770297 8.20747626,25.775389 8.20917357,25.7821782 M8.48583552,23.4330976 L8.48753283,23.4280057 C8.48753283,23.429703 8.48583552,23.4314003 8.48583552,23.4330976" id="Fill-728" fill="#C05333"></path>
                    <path d="M18.3692867,54.1154173 L18.3353405,54.1154173 C16.9112952,54.1001414 15.6009699,53.1666195 15.1698525,51.7510608 C15.1630632,51.7323904 15.1579713,51.7137199 15.1528794,51.6933522 C15.1460901,51.6763791 15.1409982,51.6577086 15.1376036,51.6390382 L8.22105476,25.8314003 C8.21766013,25.8195191 8.21426551,25.8059406 8.21087088,25.7940594 L8.21087088,25.7906648 C8.21087088,25.7889675 8.20917357,25.7855728 8.20917357,25.7838755 C8.20917357,25.7838755 8.20917357,25.7838755 8.20917357,25.7821782 C8.20747626,25.775389 8.20577895,25.770297 8.20408163,25.7635078 C8.20238432,25.7584158 8.20238432,25.7550212 8.20068701,25.7499293 C8.20068701,25.7465347 8.19898969,25.74314 8.19729238,25.7380481 C8.19559507,25.7295615 8.19389776,25.7193777 8.19050313,25.7091938 C8.19050313,25.7041018 8.18880582,25.7007072 8.18880582,25.6956153 C8.18541119,25.6871287 8.18371388,25.6769448 8.18201657,25.6684583 C8.18201657,25.6633663 8.18031926,25.6582744 8.17862194,25.6531825 C8.17692463,25.6446959 8.17522732,25.6379066 8.17353001,25.6294201 C8.17353001,25.6226308 8.17183269,25.6175389 8.17013538,25.6107496 C8.16843807,25.6039604 8.16674076,25.5954738 8.16674076,25.5886846 C8.16504344,25.5818953 8.16334613,25.5751061 8.16334613,25.5700141 C8.16164882,25.5632249 8.15995151,25.5564356 8.15825419,25.5496464 C8.15825419,25.5411598 8.15655688,25.5343706 8.15485957,25.5275813 C8.15485957,25.5207921 8.15316226,25.5157001 8.15146494,25.5106082 C8.15146494,25.5021216 8.14976763,25.4936351 8.14807032,25.4851485 C8.14807032,25.4800566 8.146373,25.476662 8.146373,25.47157 C8.14467569,25.4630835 8.14297838,25.4528996 8.14128107,25.4427157 L8.14128107,25.4342291 C8.13958375,25.4240453 8.13788644,25.4121641 8.13618913,25.4019802 L8.13618913,25.3985856 C8.05981006,24.8113154 8.14467569,24.2291372 8.35853708,23.7046676 C8.36023439,23.7029703 8.36023439,23.7029703 8.36023439,23.701273 C8.36362902,23.6944837 8.36702364,23.6876945 8.36872095,23.6809052 C8.37211558,23.674116 8.3755102,23.6673267 8.37720752,23.6605375 C8.37890483,23.6571429 8.38060214,23.6554455 8.38060214,23.6537482 C8.41285108,23.5790665 8.44849465,23.5043847 8.48583552,23.4330976 C8.48583552,23.4314003 8.48753283,23.429703 8.48753283,23.4280057 L71.6292584,21.0500707 L71.8634876,21.9173975 L72.3811679,21.7782178 L72.180885,21.029703 L73.4063447,20.9838755 L78.0315215,38.2472419 L91.1347747,34.7355021 L85.0855526,36.3564356 L78.0315215,38.2472419 L19.2281269,54.0033946 C19.2094565,54.0084866 19.1924833,54.0118812 19.1738129,54.0169731 C18.9073348,54.0831683 18.6408567,54.1154173 18.376076,54.1154173 L18.3692867,54.1154173 M76.0286927,35.3889675 L75.509315,35.5281471 L76.2272782,38.2065064 L76.7466559,38.069024 L76.0286927,35.3889675 M74.9373207,31.3171146 L74.4196403,31.4562942 L75.1359062,34.1363508 L75.6552839,33.9971711 L74.9373207,31.3171146 M73.8459487,27.2435644 L73.3282683,27.382744 L74.0445342,30.0628006 L74.5639119,29.9219236 L73.8459487,27.2435644 M72.7545767,23.1717115 L72.235199,23.3108911 L72.9531623,25.9909477 L73.4725399,25.851768 L72.7545767,23.1717115" id="Fill-729" fill="#E6E6E1"></path>
                    <path d="M78.0315215,38.2472419 L73.4063447,20.9838755 L87.7927662,20.4407355 C88.7110123,20.4407355 89.5477874,20.8192362 90.1520307,21.4234795 C90.7579713,22.0294201 91.1347747,22.8644979 91.1347747,23.782744 L91.1347747,34.7355021 L78.0315215,38.2472419" id="Fill-730" fill="#DEBA55"></path>
                    <path d="M71.8634876,21.9173975 L71.6292584,21.0500707 L72.180885,21.029703 L72.3811679,21.7782178 L71.8634876,21.9173975" id="Fill-731" fill="#B2B2AE"></path>
                    <path d="M75.1359062,34.1363508 L74.4196403,31.4562942 L74.9373207,31.3171146 L75.6552839,33.9971711 L75.1359062,34.1363508" id="Fill-732" fill="#B2B2AE"></path>
                    <path d="M74.0445342,30.0628006 L73.3282683,27.382744 L73.8459487,27.2435644 L74.5639119,29.9219236 L74.0445342,30.0628006" id="Fill-733" fill="#B2B2AE"></path>
                    <path d="M72.9531623,25.9909477 L72.235199,23.3108911 L72.7545767,23.1717115 L73.4725399,25.851768 L72.9531623,25.9909477" id="Fill-734" fill="#B2B2AE"></path>
                    <path d="M76.2272782,38.2065064 L75.509315,35.5281471 L76.0286927,35.3889675 L76.7466559,38.069024 L76.2272782,38.2065064" id="Fill-735" fill="#B2B2AE"></path>
                    <path d="M91.4861184,16.6760962 L92.748919,16.3366337 L93.0883815,17.6011315 L91.8255809,17.9388967 L91.4861184,16.6760962" id="Fill-736" fill="#FFFFFF"></path>
                    <path d="M87.0951707,14.1403112 L88.3579713,13.8008487 L88.6974338,15.0653465 L87.4329359,15.4048091 L87.0951707,14.1403112" id="Fill-737" fill="#FFFFFF"></path>
                    <path d="M88.9503334,21.0653465 L90.2148313,20.725884 L90.5525965,21.9920792 L89.2897959,22.3298444 L88.9503334,21.0653465" id="Fill-738" fill="#FFFFFF"></path>
                    <path d="M90.2996969,18.733239 L91.5624975,18.3937765 L91.90196,19.6599717 L90.6357648,19.9977369 L90.2996969,18.733239" id="Fill-739" fill="#FFFFFF"></path>
                    <path d="M89.4221863,15.4693069 L90.6866842,15.1315417 L91.0261467,16.3943423 L89.7616488,16.7321075 L89.4221863,15.4693069" id="Fill-740" fill="#FFFFFF"></path>
                    <path d="M85.494605,18.2800566 L86.7591028,17.9422914 L87.0968681,19.2050919 L85.8323702,19.5428571 L85.494605,18.2800566" id="Fill-741" fill="#FFFFFF"></path>
                    <path d="M81.1036573,15.7459689 L82.3681552,15.4065064 L82.7059204,16.6710042 L81.4431198,17.0087694 L81.1036573,15.7459689" id="Fill-742" fill="#FFFFFF"></path>
                    <path d="M82.9605173,22.6727016 L84.2233178,22.333239 L84.5627804,23.5977369 L83.2999798,23.9355021 L82.9605173,22.6727016" id="Fill-743" fill="#FFFFFF"></path>
                    <path d="M84.3064862,20.3388967 L85.570984,19.9994342 L85.9087492,21.2639321 L84.6459487,21.6016973 L84.3064862,20.3388967" id="Fill-744" fill="#FFFFFF"></path>
                    <path d="M83.4323702,17.0732673 L84.6951707,16.7355021 L85.0346333,17.9983027 L83.7718327,18.3360679 L83.4323702,17.0732673" id="Fill-745" fill="#FFFFFF"></path>
                    <path d="M3.48555264,26.4509194 L85.3180845,26.4509194 C87.156274,26.4509194 88.6600929,27.9564356 88.6600929,29.7929279 L88.6600929,56.5120226 C88.6600929,58.3485149 87.156274,59.8540311 85.3180845,59.8540311 L3.48555264,59.8540311 C1.6473631,59.8540311 0.146938776,58.3485149 0.146938776,56.5120226 L0.146938776,29.7929279 C0.146938776,27.9564356 1.6473631,26.4509194 3.48555264,26.4509194" id="Fill-746" fill="#FFFFFF"></path>
                    <path d="M64.3647606,26.4509194 L85.3180845,26.4509194 C87.156274,26.4509194 88.6600929,27.9564356 88.6600929,29.7929279 L88.6600929,56.5120226 C88.6600929,58.3485149 87.156274,59.8540311 85.3180845,59.8540311 L64.3647606,59.8540311 L64.3647606,26.4509194" id="Fill-747" fill="#55BDC1"></path>
                    <path d="M13.4606587,31.6497878 C15.3684381,35.0596888 16.8128511,37.6362093 19.027844,41.5960396 L22.0456658,41.5960396 C23.3848454,41.5960396 24.2487775,41.9898161 24.6323702,42.4905233 C24.946373,42.8978784 24.946373,43.4087694 24.6323702,43.8161245 C24.2487775,44.318529 23.3848454,44.7106082 22.0456658,44.7106082 L19.027844,44.7106082 C16.8128511,48.6687412 15.3684381,51.246959 13.4606587,54.6602546 L11.6207719,54.6602546 L14.0088907,44.7106082 L10.2663164,44.7106082 C10.0236007,44.7106082 9.78258234,44.7123055 9.54326126,44.7055163 C9.15118206,44.6970297 8.76080016,44.6613861 8.3755102,44.5884017 L6.35740554,47.1173975 L5.20493029,47.1173975 L6.24198828,43.1032532 L5.20493029,39.0857143 L6.35740554,39.0857143 L8.42642958,41.6809052 C8.86773085,41.6181047 9.31751869,41.5960396 9.7639119,41.5960396 L14.0088907,41.5960396 L11.6207719,31.6497878 L13.4606587,31.6497878" id="Fill-748" fill="#55BDC1"></path>
                    <path d="M62.6318044,29.837058 L63.1681552,29.837058 L63.1681552,27.0619519 L62.6318044,27.0619519 L62.6318044,29.837058 Z" id="Fill-749" fill="#C7C7C2"></path>
                    <path d="M62.6318044,42.4837341 L63.1681552,42.4837341 L63.1681552,39.7103253 L62.6318044,39.7103253 L62.6318044,42.4837341 Z" id="Fill-750" fill="#C7C7C2"></path>
                    <path d="M62.6318044,38.2659123 L63.1681552,38.2659123 L63.1681552,35.4942008 L62.6318044,35.4942008 L62.6318044,38.2659123 Z" id="Fill-751" fill="#C7C7C2"></path>
                    <path d="M62.6318044,34.0514851 L63.1681552,34.0514851 L63.1681552,31.2780764 L62.6318044,31.2780764 L62.6318044,34.0514851 Z" id="Fill-752" fill="#C7C7C2"></path>
                    <path d="M62.6318044,55.1321075 L63.1681552,55.1321075 L63.1681552,52.3586987 L62.6318044,52.3586987 L62.6318044,55.1321075 Z" id="Fill-753" fill="#C7C7C2"></path>
                    <path d="M62.6318044,50.9176803 L63.1681552,50.9176803 L63.1681552,48.1425743 L62.6318044,48.1425743 L62.6318044,50.9176803 Z" id="Fill-754" fill="#C7C7C2"></path>
                    <path d="M62.6318044,46.6998586 L63.1681552,46.6998586 L63.1681552,43.9247525 L62.6318044,43.9247525 L62.6318044,46.6998586 Z" id="Fill-755" fill="#C7C7C2"></path>
                    <path d="M62.6318044,59.3499293 L63.1681552,59.3499293 L63.1681552,56.5765205 L62.6318044,56.5765205 L62.6318044,59.3499293 Z" id="Fill-756" fill="#C7C7C2"></path>
                    <path d="M82.9435442,43.8076379 L84.2504748,43.8076379 L84.2504748,42.5007072 L82.9435442,42.5007072 L82.9435442,43.8076379 Z" id="Fill-757" fill="#FFFFFF"></path>
                    <path d="M79.3571227,40.2229137 L80.6657507,40.2229137 L80.6657507,38.9125884 L79.3571227,38.9125884 L79.3571227,40.2229137 Z" id="Fill-758" fill="#FFFFFF"></path>
                    <path d="M79.3571227,47.3923621 L80.6657507,47.3923621 L80.6657507,46.0837341 L79.3571227,46.0837341 L79.3571227,47.3923621 Z" id="Fill-759" fill="#FFFFFF"></path>
                    <path d="M81.2632047,45.4862801 L82.5718327,45.4862801 L82.5718327,44.1793494 L81.2632047,44.1793494 L81.2632047,45.4862801 Z" id="Fill-760" fill="#FFFFFF"></path>
                    <path d="M81.2632047,42.108628 L82.5718327,42.108628 L82.5718327,40.8 L81.2632047,40.8 L81.2632047,42.108628 Z" id="Fill-761" fill="#FFFFFF"></path>
                    <path d="M76.7398666,43.8076379 L78.0484946,43.8076379 L78.0484946,42.5007072 L76.7398666,42.5007072 L76.7398666,43.8076379 Z" id="Fill-762" fill="#FFFFFF"></path>
                    <path d="M73.1534451,40.2229137 L74.4637705,40.2229137 L74.4637705,38.9125884 L73.1534451,38.9125884 L73.1534451,40.2229137 Z" id="Fill-763" fill="#FFFFFF"></path>
                    <path d="M73.1534451,47.3923621 L74.4637705,47.3923621 L74.4637705,46.0837341 L73.1534451,46.0837341 L73.1534451,47.3923621 Z" id="Fill-764" fill="#FFFFFF"></path>
                    <path d="M75.0595272,45.4862801 L76.3698525,45.4862801 L76.3698525,44.1793494 L75.0595272,44.1793494 L75.0595272,45.4862801 Z" id="Fill-765" fill="#FFFFFF"></path>
                    <path d="M75.0595272,42.108628 L76.3698525,42.108628 L76.3698525,40.8 L75.0595272,40.8 L75.0595272,42.108628 Z" id="Fill-766" fill="#FFFFFF"></path>
                    <path d="M29.0029501,41.180198 L29.5342089,41.180198 L29.5342089,40.3247525 L29.0029501,40.3247525 L29.0029501,41.180198 Z" id="Fill-767" fill="#C7C7C2"></path>
                    <path d="M30.0671651,41.180198 L30.5967266,41.180198 L30.5967266,40.3247525 L30.0671651,40.3247525 L30.0671651,41.180198 Z" id="Fill-768" fill="#C7C7C2"></path>
                    <path d="M31.1313801,41.180198 L31.6626389,41.180198 L31.6626389,40.3247525 L31.1313801,40.3247525 L31.1313801,41.180198 Z" id="Fill-769" fill="#C7C7C2"></path>
                    <path d="M32.1938978,41.180198 L32.7268539,41.180198 L32.7268539,40.3247525 L32.1938978,40.3247525 L32.1938978,41.180198 Z" id="Fill-770" fill="#C7C7C2"></path>
                    <path d="M33.2581128,41.180198 L33.7910689,41.180198 L33.7910689,40.3247525 L33.2581128,40.3247525 L33.2581128,41.180198 Z" id="Fill-771" fill="#C7C7C2"></path>
                    <path d="M34.3223277,41.180198 L34.8552839,41.180198 L34.8552839,40.3247525 L34.3223277,40.3247525 L34.3223277,41.180198 Z" id="Fill-772" fill="#C7C7C2"></path>
                    <path d="M35.38824,41.180198 L35.9194989,41.180198 L35.9194989,40.3247525 L35.38824,40.3247525 L35.38824,41.180198 Z" id="Fill-773" fill="#C7C7C2"></path>
                    <path d="M36.4507577,41.180198 L36.9837139,41.180198 L36.9837139,40.3247525 L36.4507577,40.3247525 L36.4507577,41.180198 Z" id="Fill-774" fill="#C7C7C2"></path>
                    <path d="M37.5149727,41.180198 L38.0496262,41.180198 L38.0496262,40.3247525 L37.5149727,40.3247525 L37.5149727,41.180198 Z" id="Fill-775" fill="#C7C7C2"></path>
                    <path d="M38.580885,41.180198 L39.1138412,41.180198 L39.1138412,40.3247525 L38.580885,40.3247525 L38.580885,41.180198 Z" id="Fill-776" fill="#C7C7C2"></path>
                    <path d="M39.6434027,41.180198 L40.1780562,41.180198 L40.1780562,40.3247525 L39.6434027,40.3247525 L39.6434027,41.180198 Z" id="Fill-777" fill="#C7C7C2"></path>
                    <path d="M40.709315,41.180198 L41.2422712,41.180198 L41.2422712,40.3247525 L40.709315,40.3247525 L40.709315,41.180198 Z" id="Fill-778" fill="#C7C7C2"></path>
                    <path d="M41.77353,41.180198 L42.3064862,41.180198 L42.3064862,40.3247525 L41.77353,40.3247525 L41.77353,41.180198 Z" id="Fill-779" fill="#C7C7C2"></path>
                    <path d="M42.837745,41.180198 L43.3690038,41.180198 L43.3690038,40.3247525 L42.837745,40.3247525 L42.837745,41.180198 Z" id="Fill-780" fill="#C7C7C2"></path>
                    <path d="M43.90196,41.180198 L44.4349161,41.180198 L44.4349161,40.3247525 L43.90196,40.3247525 L43.90196,41.180198 Z" id="Fill-781" fill="#C7C7C2"></path>
                    <path d="M44.9678723,41.180198 L45.4991311,41.180198 L45.4991311,40.3247525 L44.9678723,40.3247525 L44.9678723,41.180198 Z" id="Fill-782" fill="#C7C7C2"></path>
                    <path d="M46.03039,41.180198 L46.5616488,41.180198 L46.5616488,40.3247525 L46.03039,40.3247525 L46.03039,41.180198 Z" id="Fill-783" fill="#C7C7C2"></path>
                    <path d="M47.0963023,41.180198 L47.6275611,41.180198 L47.6275611,40.3247525 L47.0963023,40.3247525 L47.0963023,41.180198 Z" id="Fill-784" fill="#C7C7C2"></path>
                    <path d="M48.1605173,41.180198 L48.6900788,41.180198 L48.6900788,40.3247525 L48.1605173,40.3247525 L48.1605173,41.180198 Z" id="Fill-785" fill="#C7C7C2"></path>
                    <path d="M49.2247323,41.180198 L49.7559911,41.180198 L49.7559911,40.3247525 L49.2247323,40.3247525 L49.2247323,41.180198 Z" id="Fill-786" fill="#C7C7C2"></path>
                    <path d="M50.2889473,41.180198 L50.8202061,41.180198 L50.8202061,40.3247525 L50.2889473,40.3247525 L50.2889473,41.180198 Z" id="Fill-787" fill="#C7C7C2"></path>
                    <path d="M51.3548596,41.180198 L51.8844211,41.180198 L51.8844211,40.3247525 L51.3548596,40.3247525 L51.3548596,41.180198 Z" id="Fill-788" fill="#C7C7C2"></path>
                    <path d="M52.4173772,41.180198 L52.9503334,41.180198 L52.9503334,40.3247525 L52.4173772,40.3247525 L52.4173772,41.180198 Z" id="Fill-789" fill="#C7C7C2"></path>
                    <path d="M53.4832896,41.180198 L54.0162457,41.180198 L54.0162457,40.3247525 L53.4832896,40.3247525 L53.4832896,41.180198 Z" id="Fill-790" fill="#C7C7C2"></path>
                    <path d="M54.5475045,41.180198 L55.0787634,41.180198 L55.0787634,40.3247525 L54.5475045,40.3247525 L54.5475045,41.180198 Z" id="Fill-791" fill="#C7C7C2"></path>
                    <path d="M29.0029501,45.1790665 L29.5342089,45.1790665 L29.5342089,44.3236209 L29.0029501,44.3236209 L29.0029501,45.1790665 Z" id="Fill-792" fill="#C7C7C2"></path>
                    <path d="M30.0671651,45.1790665 L30.5967266,45.1790665 L30.5967266,44.3236209 L30.0671651,44.3236209 L30.0671651,45.1790665 Z" id="Fill-793" fill="#C7C7C2"></path>
                    <path d="M31.1313801,45.1790665 L31.6626389,45.1790665 L31.6626389,44.3236209 L31.1313801,44.3236209 L31.1313801,45.1790665 Z" id="Fill-794" fill="#C7C7C2"></path>
                    <path d="M32.1938978,45.1790665 L32.7268539,45.1790665 L32.7268539,44.3236209 L32.1938978,44.3236209 L32.1938978,45.1790665 Z" id="Fill-795" fill="#C7C7C2"></path>
                    <path d="M33.2581128,45.1790665 L33.7910689,45.1790665 L33.7910689,44.3236209 L33.2581128,44.3236209 L33.2581128,45.1790665 Z" id="Fill-796" fill="#C7C7C2"></path>
                    <path d="M34.3223277,45.1790665 L34.8552839,45.1790665 L34.8552839,44.3236209 L34.3223277,44.3236209 L34.3223277,45.1790665 Z" id="Fill-797" fill="#C7C7C2"></path>
                    <path d="M35.38824,45.1790665 L35.9194989,45.1790665 L35.9194989,44.3236209 L35.38824,44.3236209 L35.38824,45.1790665 Z" id="Fill-798" fill="#C7C7C2"></path>
                    <path d="M36.4507577,45.1790665 L36.9837139,45.1790665 L36.9837139,44.3236209 L36.4507577,44.3236209 L36.4507577,45.1790665 Z" id="Fill-799" fill="#C7C7C2"></path>
                    <path d="M37.5149727,45.1790665 L38.0496262,45.1790665 L38.0496262,44.3236209 L37.5149727,44.3236209 L37.5149727,45.1790665 Z" id="Fill-800" fill="#C7C7C2"></path>
                    <path d="M38.580885,45.1790665 L39.1138412,45.1790665 L39.1138412,44.3236209 L38.580885,44.3236209 L38.580885,45.1790665 Z" id="Fill-801" fill="#C7C7C2"></path>
                    <path d="M39.6434027,45.1790665 L40.1780562,45.1790665 L40.1780562,44.3236209 L39.6434027,44.3236209 L39.6434027,45.1790665 Z" id="Fill-802" fill="#C7C7C2"></path>
                    <path d="M40.709315,45.1790665 L41.2422712,45.1790665 L41.2422712,44.3236209 L40.709315,44.3236209 L40.709315,45.1790665 Z" id="Fill-803" fill="#C7C7C2"></path>
                    <path d="M41.77353,45.1790665 L42.3064862,45.1790665 L42.3064862,44.3236209 L41.77353,44.3236209 L41.77353,45.1790665 Z" id="Fill-804" fill="#C7C7C2"></path>
                    <path d="M42.837745,45.1790665 L43.3690038,45.1790665 L43.3690038,44.3236209 L42.837745,44.3236209 L42.837745,45.1790665 Z" id="Fill-805" fill="#C7C7C2"></path>
                    <path d="M43.90196,45.1790665 L44.4349161,45.1790665 L44.4349161,44.3236209 L43.90196,44.3236209 L43.90196,45.1790665 Z" id="Fill-806" fill="#C7C7C2"></path>
                    <path d="M44.9678723,45.1790665 L45.4991311,45.1790665 L45.4991311,44.3236209 L44.9678723,44.3236209 L44.9678723,45.1790665 Z" id="Fill-807" fill="#C7C7C2"></path>
                    <path d="M46.03039,45.1790665 L46.5616488,45.1790665 L46.5616488,44.3236209 L46.03039,44.3236209 L46.03039,45.1790665 Z" id="Fill-808" fill="#C7C7C2"></path>
                    <path d="M47.0963023,45.1790665 L47.6275611,45.1790665 L47.6275611,44.3236209 L47.0963023,44.3236209 L47.0963023,45.1790665 Z" id="Fill-809" fill="#C7C7C2"></path>
                    <path d="M48.1605173,45.1790665 L48.6900788,45.1790665 L48.6900788,44.3236209 L48.1605173,44.3236209 L48.1605173,45.1790665 Z" id="Fill-810" fill="#C7C7C2"></path>
                    <path d="M49.2247323,45.1790665 L49.7559911,45.1790665 L49.7559911,44.3236209 L49.2247323,44.3236209 L49.2247323,45.1790665 Z" id="Fill-811" fill="#C7C7C2"></path>
                    <path d="M50.2889473,45.1790665 L50.8202061,45.1790665 L50.8202061,44.3236209 L50.2889473,44.3236209 L50.2889473,45.1790665 Z" id="Fill-812" fill="#C7C7C2"></path>
                    <path d="M51.3548596,45.1790665 L51.8844211,45.1790665 L51.8844211,44.3236209 L51.3548596,44.3236209 L51.3548596,45.1790665 Z" id="Fill-813" fill="#C7C7C2"></path>
                    <path d="M52.4173772,45.1790665 L52.9503334,45.1790665 L52.9503334,44.3236209 L52.4173772,44.3236209 L52.4173772,45.1790665 Z" id="Fill-814" fill="#C7C7C2"></path>
                    <path d="M53.4832896,45.1790665 L54.0162457,45.1790665 L54.0162457,44.3236209 L53.4832896,44.3236209 L53.4832896,45.1790665 Z" id="Fill-815" fill="#C7C7C2"></path>
                    <path d="M54.5475045,45.1790665 L55.0787634,45.1790665 L55.0787634,44.3236209 L54.5475045,44.3236209 L54.5475045,45.1790665 Z" id="Fill-816" fill="#C7C7C2"></path>
                    <path d="M29.0029501,49.1762376 L29.5342089,49.1762376 L29.5342089,48.3207921 L29.0029501,48.3207921 L29.0029501,49.1762376 Z" id="Fill-817" fill="#C7C7C2"></path>
                    <path d="M30.0671651,49.1762376 L30.5967266,49.1762376 L30.5967266,48.3207921 L30.0671651,48.3207921 L30.0671651,49.1762376 Z" id="Fill-818" fill="#C7C7C2"></path>
                    <path d="M31.1313801,49.1762376 L31.6626389,49.1762376 L31.6626389,48.3207921 L31.1313801,48.3207921 L31.1313801,49.1762376 Z" id="Fill-819" fill="#C7C7C2"></path>
                    <path d="M32.1938978,49.1762376 L32.7268539,49.1762376 L32.7268539,48.3207921 L32.1938978,48.3207921 L32.1938978,49.1762376 Z" id="Fill-820" fill="#C7C7C2"></path>
                    <path d="M33.2581128,49.1762376 L33.7910689,49.1762376 L33.7910689,48.3207921 L33.2581128,48.3207921 L33.2581128,49.1762376 Z" id="Fill-821" fill="#C7C7C2"></path>
                    <path d="M34.3223277,49.1762376 L34.8552839,49.1762376 L34.8552839,48.3207921 L34.3223277,48.3207921 L34.3223277,49.1762376 Z" id="Fill-822" fill="#C7C7C2"></path>
                    <path d="M35.38824,49.1762376 L35.9194989,49.1762376 L35.9194989,48.3207921 L35.38824,48.3207921 L35.38824,49.1762376 Z" id="Fill-823" fill="#C7C7C2"></path>
                    <path d="M36.4507577,49.1762376 L36.9837139,49.1762376 L36.9837139,48.3207921 L36.4507577,48.3207921 L36.4507577,49.1762376 Z" id="Fill-824" fill="#C7C7C2"></path>
                    <path d="M37.5149727,49.1762376 L38.0496262,49.1762376 L38.0496262,48.3207921 L37.5149727,48.3207921 L37.5149727,49.1762376 Z" id="Fill-825" fill="#C7C7C2"></path>
                    <path d="M38.580885,49.1762376 L39.1138412,49.1762376 L39.1138412,48.3207921 L38.580885,48.3207921 L38.580885,49.1762376 Z" id="Fill-826" fill="#C7C7C2"></path>
                    <path d="M39.6434027,49.1762376 L40.1780562,49.1762376 L40.1780562,48.3207921 L39.6434027,48.3207921 L39.6434027,49.1762376 Z" id="Fill-827" fill="#C7C7C2"></path>
                    <path d="M40.709315,49.1762376 L41.2422712,49.1762376 L41.2422712,48.3207921 L40.709315,48.3207921 L40.709315,49.1762376 Z" id="Fill-828" fill="#C7C7C2"></path>
                    <path d="M41.77353,49.1762376 L42.3064862,49.1762376 L42.3064862,48.3207921 L41.77353,48.3207921 L41.77353,49.1762376 Z" id="Fill-829" fill="#C7C7C2"></path>
                    <path d="M42.837745,49.1762376 L43.3690038,49.1762376 L43.3690038,48.3207921 L42.837745,48.3207921 L42.837745,49.1762376 Z" id="Fill-830" fill="#C7C7C2"></path>
                    <path d="M43.90196,49.1762376 L44.4349161,49.1762376 L44.4349161,48.3207921 L43.90196,48.3207921 L43.90196,49.1762376 Z" id="Fill-831" fill="#C7C7C2"></path>
                    <path d="M44.9678723,49.1762376 L45.4991311,49.1762376 L45.4991311,48.3207921 L44.9678723,48.3207921 L44.9678723,49.1762376 Z" id="Fill-832" fill="#C7C7C2"></path>
                    <path d="M46.03039,49.1762376 L46.5616488,49.1762376 L46.5616488,48.3207921 L46.03039,48.3207921 L46.03039,49.1762376 Z" id="Fill-833" fill="#C7C7C2"></path>
                    <path d="M47.0963023,49.1762376 L47.6275611,49.1762376 L47.6275611,48.3207921 L47.0963023,48.3207921 L47.0963023,49.1762376 Z" id="Fill-834" fill="#C7C7C2"></path>
                    <path d="M48.1605173,49.1762376 L48.6900788,49.1762376 L48.6900788,48.3207921 L48.1605173,48.3207921 L48.1605173,49.1762376 Z" id="Fill-835" fill="#C7C7C2"></path>
                    <path d="M49.2247323,49.1762376 L49.7559911,49.1762376 L49.7559911,48.3207921 L49.2247323,48.3207921 L49.2247323,49.1762376 Z" id="Fill-836" fill="#C7C7C2"></path>
                    <path d="M50.2889473,49.1762376 L50.8202061,49.1762376 L50.8202061,48.3207921 L50.2889473,48.3207921 L50.2889473,49.1762376 Z" id="Fill-837" fill="#C7C7C2"></path>
                    <path d="M51.3548596,49.1762376 L51.8844211,49.1762376 L51.8844211,48.3207921 L51.3548596,48.3207921 L51.3548596,49.1762376 Z" id="Fill-838" fill="#C7C7C2"></path>
                    <path d="M52.4173772,49.1762376 L52.9503334,49.1762376 L52.9503334,48.3207921 L52.4173772,48.3207921 L52.4173772,49.1762376 Z" id="Fill-839" fill="#C7C7C2"></path>
                    <path d="M53.4832896,49.1762376 L54.0162457,49.1762376 L54.0162457,48.3207921 L53.4832896,48.3207921 L53.4832896,49.1762376 Z" id="Fill-840" fill="#C7C7C2"></path>
                    <path d="M54.5475045,49.1762376 L55.0787634,49.1762376 L55.0787634,48.3207921 L54.5475045,48.3207921 L54.5475045,49.1762376 Z" id="Fill-841" fill="#C7C7C2"></path>
                    <path d="M29.0029501,53.1751061 L29.5342089,53.1751061 L29.5342089,52.3196605 L29.0029501,52.3196605 L29.0029501,53.1751061 Z" id="Fill-842" fill="#C7C7C2"></path>
                    <path d="M30.0671651,53.1751061 L30.5967266,53.1751061 L30.5967266,52.3196605 L30.0671651,52.3196605 L30.0671651,53.1751061 Z" id="Fill-843" fill="#C7C7C2"></path>
                    <path d="M31.1313801,53.1751061 L31.6626389,53.1751061 L31.6626389,52.3196605 L31.1313801,52.3196605 L31.1313801,53.1751061 Z" id="Fill-844" fill="#C7C7C2"></path>
                    <path d="M32.1938978,53.1751061 L32.7268539,53.1751061 L32.7268539,52.3196605 L32.1938978,52.3196605 L32.1938978,53.1751061 Z" id="Fill-845" fill="#C7C7C2"></path>
                    <path d="M33.2581128,53.1751061 L33.7910689,53.1751061 L33.7910689,52.3196605 L33.2581128,52.3196605 L33.2581128,53.1751061 Z" id="Fill-846" fill="#C7C7C2"></path>
                    <path d="M34.3223277,53.1751061 L34.8552839,53.1751061 L34.8552839,52.3196605 L34.3223277,52.3196605 L34.3223277,53.1751061 Z" id="Fill-847" fill="#C7C7C2"></path>
                    <path d="M35.38824,53.1751061 L35.9194989,53.1751061 L35.9194989,52.3196605 L35.38824,52.3196605 L35.38824,53.1751061 Z" id="Fill-848" fill="#C7C7C2"></path>
                    <path d="M36.4507577,53.1751061 L36.9837139,53.1751061 L36.9837139,52.3196605 L36.4507577,52.3196605 L36.4507577,53.1751061 Z" id="Fill-849" fill="#C7C7C2"></path>
                    <path d="M37.5149727,53.1751061 L38.0496262,53.1751061 L38.0496262,52.3196605 L37.5149727,52.3196605 L37.5149727,53.1751061 Z" id="Fill-850" fill="#C7C7C2"></path>
                    <path d="M38.580885,53.1751061 L39.1138412,53.1751061 L39.1138412,52.3196605 L38.580885,52.3196605 L38.580885,53.1751061 Z" id="Fill-851" fill="#C7C7C2"></path>
                    <path d="M39.6434027,53.1751061 L40.1780562,53.1751061 L40.1780562,52.3196605 L39.6434027,52.3196605 L39.6434027,53.1751061 Z" id="Fill-852" fill="#C7C7C2"></path>
                    <path d="M40.709315,53.1751061 L41.2422712,53.1751061 L41.2422712,52.3196605 L40.709315,52.3196605 L40.709315,53.1751061 Z" id="Fill-853" fill="#C7C7C2"></path>
                    <path d="M41.77353,53.1751061 L42.3064862,53.1751061 L42.3064862,52.3196605 L41.77353,52.3196605 L41.77353,53.1751061 Z" id="Fill-854" fill="#C7C7C2"></path>
                    <path d="M42.837745,53.1751061 L43.3690038,53.1751061 L43.3690038,52.3196605 L42.837745,52.3196605 L42.837745,53.1751061 Z" id="Fill-855" fill="#C7C7C2"></path>
                    <path d="M43.90196,53.1751061 L44.4349161,53.1751061 L44.4349161,52.3196605 L43.90196,52.3196605 L43.90196,53.1751061 Z" id="Fill-856" fill="#C7C7C2"></path>
                    <path d="M44.9678723,53.1751061 L45.4991311,53.1751061 L45.4991311,52.3196605 L44.9678723,52.3196605 L44.9678723,53.1751061 Z" id="Fill-857" fill="#C7C7C2"></path>
                    <path d="M46.03039,53.1751061 L46.5616488,53.1751061 L46.5616488,52.3196605 L46.03039,52.3196605 L46.03039,53.1751061 Z" id="Fill-858" fill="#C7C7C2"></path>
                    <path d="M47.0963023,53.1751061 L47.6275611,53.1751061 L47.6275611,52.3196605 L47.0963023,52.3196605 L47.0963023,53.1751061 Z" id="Fill-859" fill="#C7C7C2"></path>
                    <path d="M48.1605173,53.1751061 L48.6900788,53.1751061 L48.6900788,52.3196605 L48.1605173,52.3196605 L48.1605173,53.1751061 Z" id="Fill-860" fill="#C7C7C2"></path>
                    <path d="M49.2247323,53.1751061 L49.7559911,53.1751061 L49.7559911,52.3196605 L49.2247323,52.3196605 L49.2247323,53.1751061 Z" id="Fill-861" fill="#C7C7C2"></path>
                    <path d="M50.2889473,53.1751061 L50.8202061,53.1751061 L50.8202061,52.3196605 L50.2889473,52.3196605 L50.2889473,53.1751061 Z" id="Fill-862" fill="#C7C7C2"></path>
                    <path d="M51.3548596,53.1751061 L51.8844211,53.1751061 L51.8844211,52.3196605 L51.3548596,52.3196605 L51.3548596,53.1751061 Z" id="Fill-863" fill="#C7C7C2"></path>
                    <path d="M52.4173772,53.1751061 L52.9503334,53.1751061 L52.9503334,52.3196605 L52.4173772,52.3196605 L52.4173772,53.1751061 Z" id="Fill-864" fill="#C7C7C2"></path>
                    <path d="M53.4832896,53.1751061 L54.0162457,53.1751061 L54.0162457,52.3196605 L53.4832896,52.3196605 L53.4832896,53.1751061 Z" id="Fill-865" fill="#C7C7C2"></path>
                    <path d="M54.5475045,53.1751061 L55.0787634,53.1751061 L55.0787634,52.3196605 L54.5475045,52.3196605 L54.5475045,53.1751061 Z" id="Fill-866" fill="#C7C7C2"></path>
                    <path d="M29.0029501,33.1841584 L29.6428369,33.1841584 L29.6428369,32.3287129 L29.0029501,32.3287129 L29.0029501,33.1841584 Z" id="Fill-867" fill="#C7C7C2"></path>
                    <path d="M30.2827238,33.1841584 L30.9243079,33.1841584 L30.9243079,32.3287129 L30.2827238,32.3287129 L30.2827238,33.1841584 Z" id="Fill-868" fill="#C7C7C2"></path>
                    <path d="M31.5658921,33.1841584 L32.2074763,33.1841584 L32.2074763,32.3287129 L31.5658921,32.3287129 L31.5658921,33.1841584 Z" id="Fill-869" fill="#C7C7C2"></path>
                    <path d="M32.8473631,33.1841584 L33.4889473,33.1841584 L33.4889473,32.3287129 L32.8473631,32.3287129 L32.8473631,33.1841584 Z" id="Fill-870" fill="#C7C7C2"></path>
                    <path d="M34.1322287,33.1841584 L34.7721156,33.1841584 L34.7721156,32.3287129 L34.1322287,32.3287129 L34.1322287,33.1841584 Z" id="Fill-871" fill="#C7C7C2"></path>
                    <path d="M35.4136997,33.1841584 L36.0535866,33.1841584 L36.0535866,32.3287129 L35.4136997,32.3287129 L35.4136997,33.1841584 Z" id="Fill-872" fill="#C7C7C2"></path>
                    <path d="M36.6951707,33.1841584 L37.3384522,33.1841584 L37.3384522,32.3287129 L36.6951707,32.3287129 L36.6951707,33.1841584 Z" id="Fill-873" fill="#C7C7C2"></path>
                    <path d="M37.9783391,33.1841584 L38.6199232,33.1841584 L38.6199232,32.3287129 L37.9783391,32.3287129 L37.9783391,33.1841584 Z" id="Fill-874" fill="#C7C7C2"></path>
                    <path d="M39.2598101,33.1841584 L39.9013942,33.1841584 L39.9013942,32.3287129 L39.2598101,32.3287129 L39.2598101,33.1841584 Z" id="Fill-875" fill="#C7C7C2"></path>
                    <path d="M40.5429784,33.1841584 L41.1828652,33.1841584 L41.1828652,32.3287129 L40.5429784,32.3287129 L40.5429784,33.1841584 Z" id="Fill-876" fill="#C7C7C2"></path>
                    <path d="M41.8244494,33.1841584 L42.4677309,33.1841584 L42.4677309,32.3287129 L41.8244494,32.3287129 L41.8244494,33.1841584 Z" id="Fill-877" fill="#C7C7C2"></path>
                    <path d="M43.1076177,33.1841584 L43.7492019,33.1841584 L43.7492019,32.3287129 L43.1076177,32.3287129 L43.1076177,33.1841584 Z" id="Fill-878" fill="#C7C7C2"></path>
                    <path d="M44.3890887,33.1841584 L45.0306729,33.1841584 L45.0306729,32.3287129 L44.3890887,32.3287129 L44.3890887,33.1841584 Z" id="Fill-879" fill="#C7C7C2"></path>
                    <path d="M45.6739543,33.1841584 L46.3138412,33.1841584 L46.3138412,32.3287129 L45.6739543,32.3287129 L45.6739543,33.1841584 Z" id="Fill-880" fill="#C7C7C2"></path>
                    <path d="M46.9554253,33.1841584 L47.5953122,33.1841584 L47.5953122,32.3287129 L46.9554253,32.3287129 L46.9554253,33.1841584 Z" id="Fill-881" fill="#C7C7C2"></path>
                    <path d="M48.2368963,33.1841584 L48.8801778,33.1841584 L48.8801778,32.3287129 L48.2368963,32.3287129 L48.2368963,33.1841584 Z" id="Fill-882" fill="#C7C7C2"></path>
                    <path d="M49.5183673,33.1841584 L50.1599515,33.1841584 L50.1599515,32.3287129 L49.5183673,32.3287129 L49.5183673,33.1841584 Z" id="Fill-883" fill="#C7C7C2"></path>
                    <path d="M50.8015357,33.1841584 L51.4431198,33.1841584 L51.4431198,32.3287129 L50.8015357,32.3287129 L50.8015357,33.1841584 Z" id="Fill-884" fill="#C7C7C2"></path>
                    <path d="M52.084704,33.1841584 L52.7262881,33.1841584 L52.7262881,32.3287129 L52.084704,32.3287129 L52.084704,33.1841584 Z" id="Fill-885" fill="#C7C7C2"></path>
                    <path d="M53.3678723,33.1841584 L54.0111538,33.1841584 L54.0111538,32.3287129 L53.3678723,32.3287129 L53.3678723,33.1841584 Z" id="Fill-886" fill="#C7C7C2"></path>
                    <path d="M54.6510406,33.1841584 L55.2926248,33.1841584 L55.2926248,32.3287129 L54.6510406,32.3287129 L54.6510406,33.1841584 Z" id="Fill-887" fill="#C7C7C2"></path>
                    <path d="M36.1418468,21.9700141 L35.4815922,22.148232 L35.2422712,21.2724187 L35.9008285,21.0925035 L36.1418468,21.9700141" id="Fill-888" fill="#C7C7C2"></path>
                    <path d="M37.4572641,21.6118812 L36.7970095,21.790099 L36.5593857,20.9125884 L37.2162457,20.7343706 L37.4572641,21.6118812" id="Fill-889" fill="#C7C7C2"></path>
                    <path d="M38.7692867,21.2537482 L38.1141241,21.4319661 L37.874803,20.5544554 L38.5333603,20.3745403 L38.7692867,21.2537482" id="Fill-890" fill="#C7C7C2"></path>
                    <path d="M40.0864013,20.8956153 L39.4295413,21.0755304 L39.1919176,20.1980198 L39.8470802,20.0181047 L40.0864013,20.8956153" id="Fill-891" fill="#C7C7C2"></path>
                    <path d="M41.4018185,20.5374823 L40.7466559,20.7173975 L40.5056375,19.8381895 L41.1641948,19.6599717 L41.4018185,20.5374823" id="Fill-892" fill="#C7C7C2"></path>
                    <path d="M42.7189331,20.1793494 L42.0620731,20.3592645 L41.8210548,19.4817539 L42.479612,19.3052334 L42.7189331,20.1793494" id="Fill-893" fill="#C7C7C2"></path>
                    <path d="M44.0343504,19.8212164 L43.3757931,20.0011315 L43.1381693,19.1236209 L43.7950293,18.9454031 L44.0343504,19.8212164" id="Fill-894" fill="#C7C7C2"></path>
                    <path d="M45.3497676,19.4630835 L44.6912103,19.6429986 L44.4518893,18.7637907 L45.1121439,18.5872702 L45.3497676,19.4630835" id="Fill-895" fill="#C7C7C2"></path>
                    <path d="M46.6668822,19.1049505 L46.0083249,19.2865629 L45.7690038,18.407355 L46.4275611,18.2308345 L46.6668822,19.1049505" id="Fill-896" fill="#C7C7C2"></path>
                    <path d="M47.9806021,18.7468175 L47.3237422,18.9267327 L47.0844211,18.0509194 L47.7429784,17.8710042 L47.9806021,18.7468175" id="Fill-897" fill="#C7C7C2"></path>
                    <path d="M49.2977167,18.3903819 L48.6391594,18.5685997 L48.3998384,17.6910891 L49.0566983,17.5128713 L49.2977167,18.3903819" id="Fill-898" fill="#C7C7C2"></path>
                    <path d="M50.6114367,18.0322489 L49.9545767,18.2121641 L49.7169529,17.3329562 L50.3721156,17.1564356 L50.6114367,18.0322489" id="Fill-899" fill="#C7C7C2"></path>
                    <path d="M51.9268539,17.674116 L51.2716913,17.8540311 L51.0323702,16.9765205 L51.6892301,16.7983027 L51.9268539,17.674116" id="Fill-900" fill="#C7C7C2"></path>
                    <path d="M53.2456658,17.3176803 L52.5888058,17.4942008 L52.3494847,16.6200849 L53.0063447,16.4384724 L53.2456658,17.3176803" id="Fill-901" fill="#C7C7C2"></path>
                    <path d="M54.561083,16.9578501 L53.9025258,17.1377652 L53.6665993,16.2619519 L54.3234593,16.0820368 L54.561083,16.9578501" id="Fill-902" fill="#C7C7C2"></path>
                    <path d="M55.8781976,16.6014144 L55.2196403,16.7796322 L54.9786219,15.903819 L55.6388765,15.7239038 L55.8781976,16.6014144" id="Fill-903" fill="#C7C7C2"></path>
                    <path d="M57.1936149,16.2432815 L56.5350576,16.419802 L56.2957365,15.545686 L56.9542938,15.3657709 L57.1936149,16.2432815" id="Fill-904" fill="#C7C7C2"></path>
                    <path d="M58.5073348,15.8868458 L57.8504748,16.0633663 L57.6111538,15.187553 L58.2714084,15.0076379 L58.5073348,15.8868458" id="Fill-905" fill="#C7C7C2"></path>
                    <path d="M59.8244494,15.5270156 L59.1658921,15.7052334 L58.926571,14.8294201 L59.5868256,14.649505 L59.8244494,15.5270156" id="Fill-906" fill="#C7C7C2"></path>
                    <path d="M61.1398666,15.1688826 L60.4813094,15.3487977 L60.2436856,14.4712871 L60.9005456,14.291372 L61.1398666,15.1688826" id="Fill-907" fill="#C7C7C2"></path>
                    <path d="M62.4569812,14.812447 L61.7984239,14.9906648 L61.5591028,14.1131542 L62.2159628,13.933239 L62.4569812,14.812447" id="Fill-908" fill="#C7C7C2"></path>
                    <path d="M52.7551425,26.0045262 L52.0931905,26.182744 L51.8538695,25.3052334 L52.5141241,25.1253182 L52.7551425,26.0045262" id="Fill-909" fill="#C7C7C2"></path>
                    <path d="M54.0705597,25.6463932 L53.4103051,25.824611 L53.1726813,24.9471004 L53.8312386,24.7671853 L54.0705597,25.6463932" id="Fill-910" fill="#C7C7C2"></path>
                    <path d="M55.3842797,25.2882603 L54.7274197,25.4664781 L54.4880986,24.5889675 L55.1466559,24.4090523 L55.3842797,25.2882603" id="Fill-911" fill="#C7C7C2"></path>
                    <path d="M56.6996969,24.9301273 L56.0428369,25.1083451 L55.8052132,24.2308345 L56.4603758,24.0509194 L56.6996969,24.9301273" id="Fill-912" fill="#C7C7C2"></path>
                    <path d="M58.0151142,24.5719943 L57.3599515,24.7519095 L57.1189331,23.8727016 L57.7774904,23.6927864 L58.0151142,24.5719943" id="Fill-913" fill="#C7C7C2"></path>
                    <path d="M59.3322287,24.2138614 L58.6753688,24.3937765 L58.4343504,23.5145686 L59.0929077,23.3363508 L59.3322287,24.2138614" id="Fill-914" fill="#C7C7C2"></path>
                    <path d="M60.647646,23.8557284 L59.9873914,24.0356436 L59.7514649,23.1564356 L60.4100222,22.9782178 L60.647646,23.8557284" id="Fill-915" fill="#C7C7C2"></path>
                    <path d="M61.9647606,23.4975955 L61.304506,23.6775106 L61.0651849,22.7983027 L61.7254395,22.6200849 L61.9647606,23.4975955" id="Fill-916" fill="#C7C7C2"></path>
                    <path d="M63.2801778,23.1394625 L62.6199232,23.3193777 L62.3822995,22.4401697 L63.0408567,22.2619519 L63.2801778,23.1394625" id="Fill-917" fill="#C7C7C2"></path>
                    <path d="M64.5938978,22.7813296 L63.9370378,22.9612447 L63.6977167,22.0820368 L64.356274,21.903819 L64.5938978,22.7813296" id="Fill-918" fill="#C7C7C2"></path>
                </g>
            </g>
        </g>
    </g>
</svg>